<svg t="1757654375314" class="icon" viewBox="0 0 1024 1024" version="1.1" xmlns="http://www.w3.org/2000/svg" p-id="13953" width="128" height="128"><path d="M559.682443 165.520611c11.920611-34.003053 37.716031-73.477863 72.500763-102.59542C663.841221 36.543511 701.557252 18.955725 741.422901 11.920611c8.012214-1.367939 15.633588 3.908397 17.001526 11.92061 1.367939 8.012214-3.908397 15.633588-11.92061 17.001527-74.259542 13.09313-133.667176 66.051908-158.876336 133.862596-4.885496 19.737405-34.980153 11.138931-27.945038-9.184733z m28.335878 5.276336c0 0.977099 0 1.758779-0.19542 2.735877 0.19542-0.977099 0.19542-1.758779 0.19542-2.735877z m-6.448855-11.725191z m0 0z m0 0z m0 0z m0 0z m0 0z m0 0zM435.39542 179.39542c-0.977099-1.563359-1.758779-3.126718-2.149618-4.690076-25.20916-67.419847-84.225954-120.769466-158.876336-133.862596-8.012214-1.367939-13.28855-8.989313-11.920611-17.001527 1.367939-8.012214 8.989313-13.28855 17.001527-11.92061 39.865649 7.035115 77.581679 24.622901 109.044274 51.00458 31.462595 26.381679 56.280916 60.775573 71.523665 99.664122 8.793893 22.277863-15.633588 29.899237-24.622901 16.806107z m-2.540458-8.403054c0 0.781679 0 1.758779 0.19542 2.540458 0-0.781679-0.19542-1.563359-0.19542-2.540458z m6.448855-11.92061z m0 0z m0 0z m0 0z m0 0z" fill="#E2E2E2" p-id="13954"></path><path d="M512 1012.274809c-8.012214 0-14.656489-6.644275-14.656489-14.656488v-72.500764c0-8.012214 6.644275-14.656489 14.656489-14.656488s14.656489 6.644275 14.656489 14.656488v72.500764c0 8.012214-6.644275 14.656489-14.656489 14.656488zM512 146.369466c-62.925191 0-113.734351 54.131298-113.734351 120.769465 0 37.129771 15.633588 70.155725 40.451908 92.238168h146.760306c80.317557-72.109924 32.635115-213.007634-73.477863-213.007633z" fill="#696B70" p-id="13955"></path><path d="M531.541985 148.128244c-69.960305-12.89771-133.276336 44.360305-133.276336 119.010687 0 37.129771 15.633588 70.155725 40.451908 92.238168h39.08397c-73.477863-65.856489-41.429008-193.856489 53.740458-211.248855z" fill="#5C5F63" p-id="13956"></path><path d="M665.6 686.314504C523.529771 548.934351 512 370.125191 512 370.125191c-5.667176 53.154198-32.048855 200.305344-155.945038 318.534351l-2.149618 8.989313c-17.587786 73.282443 14.070229 149.300763 78.558778 188.580153l44.164886 26.772519c21.300763 12.89771 47.877863 12.89771 69.178626 0l52.177099-31.853435c59.407634-36.152672 88.916031-106.699237 72.500763-174.314504l-4.885496-20.519084z" fill="#FFBE26" p-id="13957"></path><path d="M471.548092 903.816794c-64.29313-39.083969-95.951145-115.29771-78.558779-188.580153l2.149618-8.989313c80.512977-76.8 119.792366-165.91145 139.138932-233.331297-17.001527-53.154198-22.277863-99.664122-22.277863-104.745039 0 0.781679 0 1.367939-0.19542 2.149619-5.667176 53.154198-32.048855 200.305344-155.945038 318.534351l-2.149618 8.989313c-17.587786 73.282443 14.070229 149.300763 78.558778 188.580152l44.164886 26.77252c7.816794 4.690076 16.415267 7.816794 25.01374 8.989313l-29.899236-18.369466z" fill="#F99A25" p-id="13958"></path><path d="M396.116031 645.276336h231.767938c-26.967939-32.830534-47.877863-66.638168-63.90229-99.077863h-103.963358c-16.024427 32.635115-36.738931 66.442748-63.90229 99.077863z" fill="#696B70" p-id="13959"></path><path d="M460.018321 546.198473c-16.024427 32.439695-36.738931 66.247328-63.90229 99.077863h53.154198c25.01374-33.221374 43.969466-67.029008 58.235115-99.077863h-47.487023z" fill="#5C5F63" p-id="13960"></path><path d="M384.977099 843.627481h255.609161c22.082443-28.140458 34.393893-62.925191 34.393893-99.077863H349.215267c1.367939 35.957252 13.874809 70.546565 35.761832 99.077863z" fill="#696B70" p-id="13961"></path><path d="M412.335878 843.627481c-17.392366-29.508397-25.99084-64.09771-23.645802-99.077863h-39.474809c0 28.922137 12.70229 70.351145 35.761832 99.077863h27.358779z" fill="#5C5F63" p-id="13962"></path><path d="M510.241221 370.125191c5.862595 55.890076 34.784733 215.548092 175.682443 336.512977 66.442748 57.062595 168.451908 51.00458 225.319084-15.438168 57.258015-66.833588 49.050382-167.279389-18.174046-223.951145-143.438168-121.160305-307.78626-122.723664-364.262595-119.206107-11.334351 0.58626-19.932824 10.748092-18.564886 22.082443z" fill="#AAE8FF" p-id="13963"></path><path d="M728.916031 706.638168c-140.89771-120.769466-169.819847-280.622901-175.682443-336.512977-1.172519-11.334351 7.425954-21.496183 18.760305-22.277863 2.345038-0.19542 5.080916-0.39084 7.816794-0.390839-21.105344-0.977099-38.49771-0.39084-50.80916 0.390839-11.529771 0.781679-19.932824 10.943511-18.760306 22.277863 5.862595 55.890076 34.784733 215.548092 175.682443 336.512977 36.152672 31.071756 82.858015 43.383206 127.022901 37.520611-30.094656-4.103817-59.603053-16.610687-84.030534-37.520611z" fill="#6BD9FC" p-id="13964"></path><path d="M513.758779 370.125191c-5.862595 55.890076-34.784733 215.548092-175.682443 336.512977-66.442748 57.062595-168.451908 51.00458-225.319084-15.438168C55.499237 624.366412 63.70687 523.725191 130.931298 467.053435c143.438168-121.160305 307.78626-122.723664 364.262595-119.206107 11.334351 0.781679 19.932824 10.943511 18.564886 22.277863z" fill="#AAE8FF" p-id="13965"></path><path d="M151.841221 691.2C94.583206 624.366412 102.79084 523.725191 170.015267 467.053435c113.343511-95.560305 239.584733-116.861069 315.407634-119.792366-63.90229-2.540458-218.479389 4.885496-354.491603 119.792366-67.224427 56.671756-75.432061 157.117557-18.174046 223.951145 35.370992 41.429008 88.329771 59.407634 139.334351 53.154199-37.716031-4.494656-73.868702-22.277863-100.250382-52.958779z" fill="#6BD9FC" p-id="13966"></path><path d="M198.741985 627.29771c-4.103817 0-8.207634-1.758779-11.138932-5.080916-5.276336-6.058015-4.690076-15.438168 1.563359-20.714504l200.305344-172.751145c6.058015-5.276336 15.438168-4.690076 20.714504 1.563359 5.276336 6.058015 4.690076 15.438168-1.563359 20.714504l-200.305344 172.751145c-2.735878 2.345038-6.058015 3.517557-9.575572 3.517557zM815.682443 623.584733l-200.305344-172.751145c-6.058015-5.276336-6.839695-14.461069-1.563359-20.714504 5.276336-6.058015 14.461069-6.839695 20.714504-1.563359l200.305344 172.751145c6.058015 5.276336 6.839695 14.461069 1.563359 20.714504-5.471756 6.253435-14.656489 7.035115-20.714504 1.563359z" fill="#6BD9FC" p-id="13967"></path></svg>