<svg t="1757650518064" class="icon" viewBox="0 0 1024 1024" version="1.1" xmlns="http://www.w3.org/2000/svg" p-id="13112" width="24" height="24"><path d="M512 0c285.257143 0 512 226.742857 512 512s-226.742857 512-512 512-512-226.742857-512-512 226.742857-512 512-512z m14.628571 709.485714c-29.257143 0-43.885714 21.942857-43.885714 43.885715 0 29.257143 21.942857 43.885714 43.885714 43.885714 29.257143 0 43.885714-21.942857 43.885715-43.885714s-21.942857-43.885714-43.885715-43.885715zM512 256c-87.771429 0-160.914286 73.142857-160.914286 160.914286h73.142857C416.914286 365.714286 460.8 329.142857 512 329.142857s95.085714 36.571429 95.085714 87.771429c0 43.885714-29.257143 80.457143-73.142857 95.085714h-36.571428c-7.314286 0-7.314286 0-7.314286 7.314286v146.285714c0 7.314286 7.314286 7.314286 7.314286 7.314286h51.2c7.314286 0 7.314286-7.314286 7.314285-7.314286V577.828571c87.771429-29.257143 138.971429-117.028571 109.714286-204.8C650.971429 299.885714 585.142857 256 512 256z" fill="#F3B625" p-id="13113"></path></svg>