<svg t="1750758194796" class="icon" viewBox="0 0 1024 1024" version="1.1" xmlns="http://www.w3.org/2000/svg" p-id="11063" width="128" height="128"><path d="M640 384h256c35.3 0 64 28.7 64 64v128c0 35.3-28.7 64-64 64H640c-35.3 0-64-28.7-64-64V448c0-35.3 28.7-64 64-64zM128 704h256c35.3 0 64 28.7 64 64v128c0 35.3-28.7 64-64 64H128c-35.3 0-64-28.7-64-64V768c0-35.3 28.7-64 64-64z" fill="#C8CFFC" p-id="11064"></path><path d="M289.3 448l-67.8 64 67.8 69.1 67.8-69.1-67.8-64zM128 768v128h320V768H128z m512-320v128h256V448H640zM128 128v128h320V128H128z m287.4 417.3L320 640v64h160c17.7 0 32 14.3 32 32v64h270.1V640H608c-17.7 0-32-14.3-32-32v-64l-160.6 1.3z m0-64H576v-64c-0.7-17.7 13-32.5 30.7-33.3H928c17.7 0 32 14.3 32 32v192c0 17.7-14.3 32-32 32h-81.9v192c0 17.7-14.3 32-32 32H512v64c0 17.7-14.3 32-32 32H96c-17.7 0-32-14.3-32-32V736c0-17.7 14.3-32 32-32h160v-64L128 512l128-128v-64H96c-17.7 0-32-14.3-32-32V96c0-17.7 14.3-32 32-32h384c17.7 0 32 14.3 32 32v192c0 17.7-14.3 32-32 32H320v64l95.4 97.3z" fill="#687BF7" p-id="11065"></path></svg>