<svg t="1722319489460" class="icon" viewBox="0 0 1024 1024" version="1.1" xmlns="http://www.w3.org/2000/svg" p-id="13053" width="200" height="200"><path d="M506.746922 1024L60.235294 768V256L506.746922 0 953.25855 256v512l-446.511628 256zM119.770178 732.27907l386.976744 220.27907 386.976744-220.27907V291.72093L506.746922 71.44186 119.770178 291.72093v440.55814z" fill="#FFC81F" p-id="13054"></path><path d="M268.607387 512v-59.534884h476.27907v59.534884h-476.27907zM268.607387 631.069767v-59.534883h476.27907v59.534883h-476.27907z" fill="#FFC81F" p-id="13055"></path><path d="M244.793434 297.674419l41.674418-41.674419 238.139535 238.139535-41.674418 41.674418-238.139535-238.139534z" fill="#FFC81F" p-id="13056"></path><path d="M447.212038 512h119.069768v297.674419h-119.069768v-297.674419z" fill="#FFC81F" p-id="13057"></path><path d="M530.560876 535.813953l-41.674419-47.627906 238.139535-238.139535 41.674418 41.674418-238.139534 244.093023z" fill="#FFC81F" p-id="13058"></path></svg>
