<svg t="1735281107436" class="icon" viewBox="0 0 1024 1024" version="1.1" xmlns="http://www.w3.org/2000/svg" p-id="36336" width="48" height="48"><path d="M51.2 631.466667h921.6v119.466666H51.2zM51.2 273.066667h921.6v119.466666H51.2z" fill="#296172" p-id="36337"></path><path d="M17.066667 375.466667m34.133333 0l921.6 0q34.133333 0 34.133333 34.133333l0 204.8q0 34.133333-34.133333 34.133333l-921.6 0q-34.133333 0-34.133333-34.133333l0-204.8q0-34.133333 34.133333-34.133333Z" fill="#4184A9" p-id="36338"></path><path d="M17.066667 733.866667m34.133333 0l921.6 0q34.133333 0 34.133333 34.133333l0 204.8q0 34.133333-34.133333 34.133333l-921.6 0q-34.133333 0-34.133333-34.133333l0-204.8q0-34.133333 34.133333-34.133333Z" fill="#4184A9" p-id="36339"></path><path d="M17.066667 17.066667m34.133333 0l921.6 0q34.133333 0 34.133333 34.133333l0 204.8q0 34.133333-34.133333 34.133333l-921.6 0q-34.133333 0-34.133333-34.133333l0-204.8q0-34.133333 34.133333-34.133333Z" fill="#4184A9" p-id="36340"></path><path d="M136.533333 153.6m-51.2 0a51.2 51.2 0 1 0 102.4 0 51.2 51.2 0 1 0-102.4 0Z" fill="#86FDAA" p-id="36341"></path><path d="M307.2 153.6m-51.2 0a51.2 51.2 0 1 0 102.4 0 51.2 51.2 0 1 0-102.4 0Z" fill="#86FDAA" p-id="36342"></path><path d="M443.733333 119.466667m34.133334 0l238.933333 0q34.133333 0 34.133333 34.133333l0 0q0 34.133333-34.133333 34.133333l-238.933333 0q-34.133333 0-34.133334-34.133333l0 0q0-34.133333 34.133334-34.133333Z" fill="#35718A" p-id="36343"></path><path d="M136.533333 512m-51.2 0a51.2 51.2 0 1 0 102.4 0 51.2 51.2 0 1 0-102.4 0Z" fill="#86FDAA" p-id="36344"></path><path d="M307.2 512m-51.2 0a51.2 51.2 0 1 0 102.4 0 51.2 51.2 0 1 0-102.4 0Z" fill="#86FDAA" p-id="36345"></path><path d="M443.733333 477.866667m34.133334 0l238.933333 0q34.133333 0 34.133333 34.133333l0 0q0 34.133333-34.133333 34.133333l-238.933333 0q-34.133333 0-34.133334-34.133333l0 0q0-34.133333 34.133334-34.133333Z" fill="#35718A" p-id="36346"></path><path d="M136.533333 870.4m-51.2 0a51.2 51.2 0 1 0 102.4 0 51.2 51.2 0 1 0-102.4 0Z" fill="#86FDAA" p-id="36347"></path><path d="M307.2 870.4m-51.2 0a51.2 51.2 0 1 0 102.4 0 51.2 51.2 0 1 0-102.4 0Z" fill="#86FDAA" p-id="36348"></path><path d="M443.733333 836.266667m34.133334 0l238.933333 0q34.133333 0 34.133333 34.133333l0 0q0 34.133333-34.133333 34.133333l-238.933333 0q-34.133333 0-34.133334-34.133333l0 0q0-34.133333 34.133334-34.133333Z" fill="#35718A" p-id="36349"></path><path d="M853.333333 136.533333h-17.066666a17.066667 17.066667 0 0 1 0-34.133333h17.066666a17.066667 17.066667 0 0 1 0 34.133333zM938.666667 136.533333h-17.066667a17.066667 17.066667 0 0 1 0-34.133333h17.066667a17.066667 17.066667 0 0 1 0 34.133333zM853.333333 204.8h-17.066666a17.066667 17.066667 0 0 1 0-34.133333h17.066666a17.066667 17.066667 0 0 1 0 34.133333zM938.666667 204.8h-17.066667a17.066667 17.066667 0 0 1 0-34.133333h17.066667a17.066667 17.066667 0 0 1 0 34.133333zM853.333333 494.933333h-17.066666a17.066667 17.066667 0 0 1 0-34.133333h17.066666a17.066667 17.066667 0 0 1 0 34.133333zM938.666667 494.933333h-17.066667a17.066667 17.066667 0 0 1 0-34.133333h17.066667a17.066667 17.066667 0 0 1 0 34.133333zM853.333333 563.2h-17.066666a17.066667 17.066667 0 0 1 0-34.133333h17.066666a17.066667 17.066667 0 0 1 0 34.133333zM938.666667 563.2h-17.066667a17.066667 17.066667 0 0 1 0-34.133333h17.066667a17.066667 17.066667 0 0 1 0 34.133333zM853.333333 853.333333h-17.066666a17.066667 17.066667 0 0 1 0-34.133333h17.066666a17.066667 17.066667 0 0 1 0 34.133333zM938.666667 853.333333h-17.066667a17.066667 17.066667 0 0 1 0-34.133333h17.066667a17.066667 17.066667 0 0 1 0 34.133333zM853.333333 921.6h-17.066666a17.066667 17.066667 0 0 1 0-34.133333h17.066666a17.066667 17.066667 0 0 1 0 34.133333zM938.666667 921.6h-17.066667a17.066667 17.066667 0 0 1 0-34.133333h17.066667a17.066667 17.066667 0 0 1 0 34.133333z" fill="#35718A" p-id="36350"></path></svg>