<svg xmlns="http://www.w3.org/2000/svg" width="64" height="64" class="icon" viewBox="0 0 1056 1024"><path fill="#40BF4F" d="m266.032 231.08 91.307-24.035 67.274 67.273-24.037 91.308-91.307 24.034-67.274-67.273 24.037-91.308z"/><path fill="#359941" d="m301.367 220.207 55.584-14.18 69.737 70.968-24.034 88.844-58.05 12.948-67.273-67.273 24.036-91.307z"/><path fill="#A6A6A6" d="M593.13 428.872 465.34 556.663l55.76 55.762 127.79-127.79-55.76-55.763z"/><path fill="#BFBFBF" d="M970.282 777.15 826.224 921.21 620.662 715.646l-56.06 56.063-349.949-93.77-93.77-349.949 62.857-62.854 221.858 221.858 97.172-97.172.68.679 223.85-223.85L820.78 515.53l-56.06 56.06 205.561 205.562z"/><path fill="#999" d="m408.316 483.412 318.392-316.76 10.315 29.074-328.707 330.681-224.241-224.243-29.645 29.644 86.724 320.99 320.734 86.98 65.236-65.236 225.597 220.182-26.497 26.485-205.548-205.437-51.313 54.717-352.453-95.947-95.774-347.78 62.939-61.026 224.241 217.676z"/><path fill="#999" d="M700.217 185.58 519.08 366.72 314.208 161.847l62.857-62.855 323.152 86.587z"/><path fill="#262626" d="m344.074 202.586-35.301-35.301-1.667-2.495-.586-2.942.586-2.941 1.667-2.495 62.854-62.856 2.188-1.532 2.579-.69 2.66.232L704.35 178.73l17.513-17.515 2.682-1.741 3.157-.5 3.087.829 2.485 2.01 1.451 2.848 93.482 348.879c.155 1.772.676 3.619-1.99 7.424l-50.625 50.625 205.562 205.562-10.873 10.872-210.997-210.997-1.666-2.494-.586-2.943.586-2.942 1.666-2.493 52.922-52.922-88.886-331.728-214.435 214.435-3.158 1.797-94.692 94.694-2.495 1.667-2.943.586-2.942-.586-2.493-1.667L183.74 276.008l-54.28 54.282 91.47 341.373 341.373 91.47 52.922-52.92 2.495-1.667 2.942-.587 2.943.587 2.493 1.666L837.097 921.21l-10.873 10.873L620.662 726.52l-50.625 50.625c-1.458 1.02-2.796 2.395-7.426 1.99l-349.949-93.768c-1.612-.752-3.47-1.225-5.435-5.436l-93.768-349.95c-.156-1.772-.676-3.62 1.99-7.425l62.856-62.856 2.493-1.667 2.942-.584 2.943.584 2.493 1.667 48.583 48.583 20.837-79.16c.822-2.606 1.826-4.327 5.477-5.478l80-21.06zm-91.04 412.136-3.704 1.03-64.904-233.382 3.702-1.03 64.905 233.382zm291.264-12.673-13.317 7.688-50.93-88.217 13.315-7.688 50.932 88.217zm21.14-21.14-13.315 7.688-50.933-88.22 13.316-7.687 50.932 88.219zm21.14-21.142-13.315 7.688-50.933-88.217 13.315-7.688 50.933 88.217zm21.142-21.14-13.318 7.688-50.932-88.217 13.317-7.688 50.933 88.217zm21.14-21.14-13.316 7.688-50.932-88.219 13.315-7.688 50.933 88.22zM429.07 287.582l-21.058 80c-.822 2.606-1.825 4.327-5.477 5.478l-79.16 20.838 82.223 82.224 91.737-91.736 3.157-1.799 11.792-11.791-83.214-83.214zm-156.746-50.21-21.77 82.703 61.029 61.027 82.7-21.77 21.771-82.702-61.029-61.026-82.7 21.768zm52.757-75.524 198.075 198.075 168.64-168.638-312.435-83.718-54.28 54.28zm338.372 39.748-.995 3.711-282.318-75.743.997-3.711 282.316 75.743z"/></svg>