<svg xmlns="http://www.w3.org/2000/svg" width="64" height="64" class="icon" viewBox="0 0 1024 1024"><path fill="#cdcdcd" fill-opacity=".9" d="M320 64a64 64 0 1 0 0 128 64 64 0 0 0 0-128zm384 0a64 64 0 1 0 0 128 64 64 0 0 0 0-128zM256 384a64 64 0 1 1 128 0 64 64 0 0 1-128 0zm448-64a64 64 0 1 0 0 128 64 64 0 0 0 0-128zM256 640a64 64 0 1 1 128 0 64 64 0 0 1-128 0zm64 192a64 64 0 1 0 0 128 64 64 0 0 0 0-128zm320-192a64 64 0 1 1 128 0 64 64 0 0 1-128 0zm64 192a64 64 0 1 0 0 128 64 64 0 0 0 0-128z"/></svg>