<svg xmlns="http://www.w3.org/2000/svg" width="64" height="64" class="icon" viewBox="0 0 1024 1024"><path fill="#4A68CC" d="M573.44 389.12V245.76H358.4c-28.16 0-51.2 23.04-51.2 51.2v460.8c0 28.16 23.04 51.2 51.2 51.2h307.2c28.16 0 51.2-23.04 51.2-51.2V389.12H573.44zm43.52 101.376L502.784 629.76l-21.504-20.48-21.504 20.992v-41.984l133.12-85.504-147.456 71.68-38.4-35.84v-4.608l209.92-48.128v4.608z" opacity=".2"/><path fill="#4A68CC" d="M102.4 896a409.6 51.2 0 1 0 819.2 0 409.6 51.2 0 1 0-819.2 0Z" opacity=".1"/><path fill="#4A68CC" d="M96.256 525.312c0 8.704 6.656 15.36 15.36 15.36s15.36-6.656 15.36-15.36-6.656-15.36-15.36-15.36c-8.192 0-15.36 7.168-15.36 15.36zm51.2 296.96c0 8.704 6.656 15.36 15.36 15.36s15.36-6.656 15.36-15.36-6.656-15.36-15.36-15.36c-8.192 0-15.36 7.168-15.36 15.36zm779.264 25.6c-15.36 4.096-18.944 7.168-23.04 23.04-4.096-15.36-7.168-18.944-23.04-23.04 15.36-4.096 18.944-7.68 23.04-23.04 4.096 15.36 7.168 18.944 23.04 23.04zM199.68 467.456c-31.232 8.192-37.888 14.848-46.08 46.08-8.192-31.232-14.848-37.888-46.08-46.08 31.232-8.192 37.888-14.848 46.08-46.08 8.192 31.232 14.848 37.888 46.08 46.08zm622.08-252.928c-15.36 4.096-18.432 7.168-22.528 22.528-4.096-15.36-7.168-18.432-22.528-22.528 15.36-4.096 18.432-7.168 22.528-22.528 3.584 15.36 7.168 18.432 22.528 22.528zm60.928-78.848c-39.936 10.24-48.128 18.944-58.88 58.88-10.24-39.936-18.944-48.128-58.88-58.88 39.936-10.24 48.128-18.944 58.88-58.88 10.24 39.424 18.944 48.128 58.88 58.88zM783.36 337.408c0-1.024 0-2.048-.512-2.56v-.512c0-.512-.512-1.536-.512-2.048s0-.512-.512-1.024-.512-1.024-1.024-1.536l-.512-.512c-.512-.512-1.024-1.536-1.536-2.048l-143.36-143.36c-.512-.512-1.024-1.024-2.048-1.536l-.512-.512c-.512-.512-1.024-.512-1.536-1.024-.512 0-.512 0-1.024-.512s-1.536-.512-2.048-.512h-.512c-1.024 0-2.048-.512-2.56-.512H358.4c-65.024 0-117.76 52.736-117.76 117.76v460.8c0 65.024 52.736 117.76 117.76 117.76h307.2c65.024 0 117.76-52.736 117.76-117.76V337.408c0 .512 0 .512 0 0zM640 231.424l91.136 91.136H640v-91.136zM665.6 844.8H358.4c-48.128 0-87.04-38.912-87.04-87.04v-460.8c0-48.128 38.912-87.04 87.04-87.04h250.88v128c0 8.704 6.656 15.36 15.36 15.36h128v404.48c0 48.128-38.912 87.04-87.04 87.04z" opacity=".5"/></svg>