<svg t="1752151396282" class="icon" viewBox="0 0 1024 1024" version="1.1" xmlns="http://www.w3.org/2000/svg" p-id="8163" width="128" height="128"><path d="M42.666667 181.418667l1.834666-56.448A40.96 40.96 0 0 1 85.461333 85.333333h320.170667c13.653333 0 26.453333 6.826667 34.048 18.176l52.096 77.909334H940.373333c22.613333 0 40.96 18.346667 40.96 40.96V897.706667c0 22.613333-18.346667 40.96-40.96 40.96H83.626667a40.96 40.96 0 0 1-40.96-40.96V181.418667z" fill="#FCB31D" p-id="8164"></path><path d="M83.626667 265.386667h856.746666c22.613333 0 40.96 18.346667 40.96 40.96v591.36c0 22.613333-18.346667 40.96-40.96 40.96H83.626667a40.96 40.96 0 0 1-40.96-40.96V306.346667c0-22.613333 18.346667-40.96 40.96-40.96z" fill="#FFCA5B" p-id="8165"></path></svg>