<svg t="1753251222478" class="icon" viewBox="0 0 1024 1024" version="1.1" xmlns="http://www.w3.org/2000/svg" p-id="5013" width="128" height="128"><path d="M639.776 68.256a328.544 328.544 0 0 0-65.28 65.792l25.6 48.32c16.608-24.128 34.88-47.04 54.656-68.608 1.408-1.6 2.176-2.304 2.176-2.304l-2.176 2.304a571.52 571.52 0 0 0-51.2 69.568 963.2 963.2 0 0 0 99.552-12.32 105.184 105.184 0 0 0-9.6-80S668.8 51.2 639.776 68.256zM553.76 474.24l-10.08 1.76 5.152-0.8 4.928-0.96z" fill="#C02041" p-id="5014"></path><path d="M553.76 474.24l-10.08 1.76 5.152-0.8 4.928-0.96zM562.336 432l1.6-0.224c2.176-0.32 4.32-0.704 6.4-1.152l-7.936 1.344h-0.064z" fill="#C02041" p-id="5015"></path><path d="M562.336 432l1.6-0.224c2.176-0.32 4.32-0.704 6.4-1.152l-7.936 1.344h-0.064zM524.608 307.2c7.776-14.528 15.68-28.736 23.648-42.624 8.256-14.4 16.64-28.288 25.088-41.76l1.472-2.4c8.352-13.216 16.768-25.92 25.28-38.08l-25.6-48.32-5.824 7.168c-7.392 9.216-15.04 19.2-22.912 29.6a1476.32 1476.32 0 0 0-53.12 76.128 1537.6 1537.6 0 0 0-22.144 34.88l-0.832 1.344 33.28 65.664c7.136-13.984 14.368-27.84 21.664-41.6zM372.832 678.208c-4.416 12.096-8.832 24.48-13.28 37.088l-2.08 5.888c-2.976 8.512-5.6 16-11.52 33.568 11.072 7.2 19.84 17.504 25.12 29.632a53.76 53.76 0 0 0-17.408-36.928 115.904 115.904 0 0 0 111.68-45.44c1.92-3.232 3.712-6.592 5.248-10.016a46.464 46.464 0 0 1-44.8 16.416 129.92 129.92 0 0 0 65.472-53.504 254.72 254.72 0 0 0 10.496-18.784 105.6 105.6 0 0 1-99.488 32.32l-26.944 2.944c-0.928 2.24-1.664 4.544-2.496 6.816z" fill="#C02041" p-id="5016"></path><path d="M385.408 617.792a3850.336 3850.336 0 0 1 55.136-134.816 2932.256 2932.256 0 0 1 40.768-89.856 2247.68 2247.68 0 0 1 20.96-42.88l0.736-1.44-33.344-65.664-1.6 2.624c-7.776 12.8-15.52 25.6-23.104 38.912-7.584 13.312-15.2 27.008-22.4 40.832-6.208 11.68-12.256 23.424-18.176 35.2l-3.52 7.2a960.832 960.832 0 0 0-37.536 88.256c-3.424 9.376-6.4 18.432-9.344 27.104-2.336 7.424-4.544 14.848-6.656 22.4-4.992 17.472-9.28 34.88-12.8 52.192l33.472 66.08c4.448-11.808 8.96-23.808 13.632-35.968l3.776-10.176zM333.92 600.128a514.016 514.016 0 0 0-8.704 63.168c0 0.736 0 1.472-0.16 2.24a132.736 132.736 0 0 0-38.4-32.96 186.4 186.4 0 0 1 37.504 86.176c-14.528 1.28-29.12-1.184-42.4-7.232 10.016 10.24 22.464 17.792 36.16 21.952a103.904 103.904 0 0 0-50.24 25.056 107.488 107.488 0 0 1 59.52-10.944A4923.072 4923.072 0 0 0 258.432 960a20 20 0 0 0 13.6-13.216c4.096-13.76 31.232-104 73.792-222.688l3.68-10.176 1.024-2.848c4.48-12.416 9.184-25.12 13.984-38.08l3.2-8.864v-0.16l-33.28-66.08c-0.192 0.736-0.384 1.504-0.512 2.272zM508.16 354.4l-2.88 5.92-8.768 18.24c-3.2 6.72-6.4 13.6-9.6 20.64-1.664 3.552-3.2 7.104-4.96 10.72a2610.24 2610.24 0 0 0-34.368 77.856 3399.552 3399.552 0 0 0-37.28 91.328 4256 4256 0 0 0-34.464 91.104l-0.384 1.056 26.944-2.944-1.6-0.288a192 192 0 0 0 102.72-57.824 255.52 255.52 0 0 0 35.2-48.768c8.48-15.168 16.032-30.848 22.592-46.944 6.24-15.104 12.224-31.424 17.984-49.152a97.6 97.6 0 0 1-25.216 8.768c-1.632 0.352-3.2 0.672-4.992 0.96-1.792 0.32-3.424 0.576-5.152 0.8a117.376 117.376 0 0 0 62.784-61.216 106.976 106.976 0 0 1-36.16 15.84 83.52 83.52 0 0 1-6.4 1.152l-1.6 0.224c9.536-3.84 18.56-8.896 26.848-15.008a83.712 83.712 0 0 0 15.328-14.656c3.072-3.648 5.888-7.52 8.416-11.584 0.8-1.28 1.6-2.56 2.368-3.904l2.88-5.696c4.16-8.448 7.552-16 10.208-22.592 1.344-3.2 2.496-6.4 3.488-9.216l1.152-3.2c1.056-3.2 1.92-5.984 2.56-8.48 0.832-2.88 1.504-5.824 2.016-8.8a32.096 32.096 0 0 1-3.52 2.4 126.848 126.848 0 0 1-37.152 12.8h-0.576l-3.84 0.64 0.704-0.32-84.64 9.28-0.64 0.864z" fill="#C02041" p-id="5017"></path><path d="M603.456 183.36a1122.24 1122.24 0 0 0-24.576 39.552l-1.408 2.368c-7.648 12.8-15.744 26.976-24.288 42.464a2098.592 2098.592 0 0 0-44.512 85.856l84.64-9.28a102.912 102.912 0 0 0 46.368-36.48c2.848-4.096 5.696-8.384 8.544-12.8 8.704-13.568 17.216-28.48 24.832-43.36 6.976-13.44 13.248-27.296 18.816-41.408 2.88-7.328 5.376-14.784 7.456-22.4 1.536-5.888 2.752-11.456 3.68-16.768-32.96 5.824-66.176 9.92-99.552 12.256zM548.8 475.104zM548.8 475.104zM548.8 475.104z" fill="#C02041" p-id="5018"></path></svg>