<svg t="1759196216392" class="icon" viewBox="0 0 1024 1024" version="1.1" xmlns="http://www.w3.org/2000/svg" p-id="5138" width="48" height="48"><path d="M824 866.2H129.8c-34.7 0-63-28.3-63-63v-513c0-34.6 28.3-63 63-63H824c34.6 0 63 28.4 63 63v513c0 34.7-28.4 63-63 63z" fill="#FFD301" p-id="5139"></path><path d="M920.1 364.2L753.9 198l8.8-8.8c40.9-40.9 107.2-40.9 148.1 0l18.1 18.1c40.9 40.9 40.9 107.2 0 148.1l-8.8 8.8z" fill="#FFD301" p-id="5140"></path><path d="M756.142 195.706l166.169 166.169-304.619 304.618-166.168-166.168z" fill="#EA590A" p-id="5141"></path><path d="M618.8 667.6l-179.2 51.5c-25.4 7.3-47.9-15.3-40.6-40.6l51.5-179.2 168.3 168.3z" fill="#0D4D90" p-id="5142"></path></svg>