<svg xmlns="http://www.w3.org/2000/svg" width="64" height="64" class="icon" viewBox="0 0 1024 1024"><path fill="#D9E0E3" d="M128 341.333h768V896H128z"/><path fill="#F44336" d="M128 128h768v213.333H128z"/><path fill="#FFF" d="M384 554.667h128v128H384z"/><path fill="#F44336" d="M490.667 576v85.333h-85.334V576h85.334m42.666-42.667H362.667V704h170.666V533.333z"/><path fill="#FFF" d="M533.333 576h85.334v85.333h-85.334zm128 0h85.334v85.333h-85.334zm-384 0h85.334v85.333h-85.334zm128 128h85.334v85.333h-85.334zm128 0h85.334v85.333h-85.334zm128 0h85.334v85.333h-85.334zm-384 0h85.334v85.333h-85.334zm128-256h85.334v85.333h-85.334zm128 0h85.334v85.333h-85.334zm128 0h85.334v85.333h-85.334zm-384 0h85.334v85.333h-85.334z"/><path fill="#CFD8DC" d="M661.333 64h85.334v170.667h-85.334zm-384 0h85.334v170.667h-85.334z"/></svg>