<svg t="1713850637417" class="icon" viewBox="0 0 1024 1024" version="1.1" xmlns="http://www.w3.org/2000/svg" p-id="8236" width="200" height="200"><path d="M566.7 836.4L246.4 516c-2.1-2.1-2.1-5.5 0-7.6L560 194.8c27.2-27.2 71.2-27.2 98.4 0l268 268c27.3 27.3 27.3 71.4 0 98.7L651.5 836.4c-23.4 23.4-61.3 23.4-84.8 0z" fill="#F95574" p-id="8237"></path><path d="M288.1 557.7c-25.1-25.1-25.1-65.9 0-91l129.8-129.8-50.1-50.1c-25.1-25.1-65.9-25.1-91 0l-180 179.9c-25.1 25.1-25.1 65.9 0 91l179.9 179.9c25.1 25.1 65.9 25.1 91 0l50.1-50.1-129.7-129.8z" fill="#FB8BA1" p-id="8238"></path><path d="M419.8 685.7L280.7 546.6c-19-19-19-49.7 0-68.7l139.1-139.1 142.8 142.8c16.9 16.9 16.9 44.3 0 61.2L419.8 685.7z" fill="#F93F62" p-id="8239"></path></svg>
