<svg t="1759209783565" class="icon" viewBox="0 0 1024 1024" version="1.1" xmlns="http://www.w3.org/2000/svg" p-id="8939" width="48" height="48"><path d="M609.7408 520.6016L426.7008 414.72a3.6352 3.6352 0 0 0-1.792-0.5632 3.7376 3.7376 0 0 0-1.8944 0.5632 3.3792 3.3792 0 0 0-1.792 3.1744v211.3536a3.3792 3.3792 0 0 0 1.792 3.1744 3.4304 3.4304 0 0 0 3.6864 0l183.04-105.6768a3.6352 3.6352 0 0 0 0-6.3488z" fill="#9088FF" p-id="8940"></path><path d="M951.8592 298.496a74.8032 74.8032 0 0 0-74.1376 1.1776l-47.0016 27.136v-46.08a122.368 122.368 0 0 0-122.4192-122.4192H182.784a122.4192 122.4192 0 0 0-122.4192 122.2144v484.6592a122.4192 122.4192 0 0 0 122.4192 122.4192h525.5168a122.368 122.368 0 0 0 122.4192-122.4192v-56.832l48.6912 28.16a72.3968 72.3968 0 0 0 74.1376-0.768 74.5984 74.5984 0 0 0 35.072-64.1536V361.728a71.936 71.936 0 0 0-36.7616-63.232zM221.5424 361.472a46.9504 46.9504 0 1 1 46.9504-46.8992 46.8992 46.8992 0 0 1-46.9504 46.8992z m413.7984 209.92l-183.04 105.5744a54.8352 54.8352 0 0 1-82.2784-47.5136V418.0992a54.8352 54.8352 0 0 1 82.2784-47.5136L635.3408 476.16a54.8352 54.8352 0 0 1 0 95.0272z" fill="#9088FF" p-id="8941"></path></svg>