<svg t="1711093348165" class="icon" viewBox="0 0 1024 1024" version="1.1" xmlns="http://www.w3.org/2000/svg" p-id="2574" width="200" height="200"><path d="M511.744 128.256H512v0.256l298.794667 297.984-0.426667 0.426667H810.666667v384.213333a85.12 85.12 0 0 1-84.992 85.12H255.658667c-46.933333 0-84.992-38.101333-84.992-85.12V213.333333c0-47.018667 38.101333-85.12 84.992-85.12h255.573333L511.488 128l0.256 0.256z m239.018667 298.666667L512 188.757333v152.917334c0 47.402667 38.186667 85.248 85.248 85.248h153.514667zM298.666667 426.922667v42.666666h115.2v-42.666666H298.666667z m0 128v42.666666h384v-42.666666H298.666667z m0 128v42.666666h268.8v-42.666666H298.666667z" fill="#BBC0C9" p-id="2575"></path></svg>