<?xml version="1.0" standalone="no"?><!DOCTYPE svg PUBLIC "-//W3C//DTD SVG 1.1//EN" "http://www.w3.org/Graphics/SVG/1.1/DTD/svg11.dtd"><svg t="1711445382471" class="icon" viewBox="0 0 1024 1024" version="1.1" xmlns="http://www.w3.org/2000/svg" p-id="19591" xmlns:xlink="http://www.w3.org/1999/xlink" width="200" height="200"><path d="M783.98 926.91H241.73c-79.19 0-143.62-62.36-143.62-139.01v-550c0-76.65 64.43-139.01 143.62-139.01h542.26c79.19 0 143.62 62.36 143.62 139.01v316.81c0 16.57-13.43 30-30 30s-30-13.43-30-30V237.9c0-43.57-37.51-79.01-83.62-79.01H241.73c-46.11 0-83.62 35.44-83.62 79.01v550c0 43.57 37.51 79.01 83.62 79.01h542.26c46.11 0 83.62-35.44 83.62-79.01 0-16.57 13.43-30 30-30s30 13.43 30 30c-0.01 76.65-64.44 139.01-143.63 139.01z" p-id="19592"></path><path d="M606.02 411.57c-16.57 0-30-13.43-30-30V229.56c0-16.57 13.43-30 30-30s30 13.43 30 30v152.02c0 16.56-13.43 29.99-30 29.99z" p-id="19593"></path><path d="M722.51 519.81H303.2c-23.4 0-42.43-19.03-42.43-42.43V133.26c0-17.99 14.63-32.62 32.62-32.62h439.6c17.62 0 31.96 14.33 31.96 31.96v344.79c-0.01 23.39-19.04 42.42-42.44 42.42z m-401.74-60h384.18V160.63H320.77v299.18z" p-id="19594"></path></svg>