<?xml version="1.0" standalone="no"?><!DOCTYPE svg PUBLIC "-//W3C//DTD SVG 1.1//EN" "http://www.w3.org/Graphics/SVG/1.1/DTD/svg11.dtd"><svg t="1760077763047" class="icon" viewBox="0 0 1027 1024" version="1.1" xmlns="http://www.w3.org/2000/svg" p-id="13454" width="256.75" height="256" xmlns:xlink="http://www.w3.org/1999/xlink"><path d="M0.384859 561.178345v-64.226792c0-4.950479 3.974586-9.018989 8.890703-9.170184l0.285208-0.004582h137.05106V323.194559c-64.814389-19.425074-112.22536-79.009503-113.373065-149.89344L33.217002 170.666667c0-4.944752 3.968859-9.007535 8.879249-9.15873L42.380313 161.503356h68.724832c5.039821 0 9.163311 4.12349 9.163311 9.163311 0 39.461799 31.658094 71.513915 70.967553 72.15191L192.42953 242.82774l66.687141-0.001145C265.107186 107.706702 376.547937 0 513.145414 0s248.038228 107.706702 254.028743 242.826595L833.861298 242.82774c39.860403 0 72.161074-32.300671 72.161073-72.161073 0-4.944752 3.968859-9.007535 8.879249-9.15873L915.185682 161.503356h68.724833c5.039821 0 9.163311 4.12349 9.163311 9.163311 0 72.03966-47.779794 132.863427-113.395974 152.529038v164.581082h137.976555c5.045548 0 9.174765 4.129217 9.174765 9.174766v64.226792c0 5.046694-4.129217 9.174765-9.174765 9.174765l-137.976555 0.001145V657.467562c0 20.228009-1.637942 40.07574-4.791266 59.412617 63.578488 38.633664 106.065324 108.555454 106.065325 188.370183 0 5.046694-4.129217 9.174765-9.174766 9.174766h-64.229082c-5.046694 0-9.174765-4.128072-9.174765-9.174766 0-41.66443-18.516761-79.066774-47.843938-104.312841C794.700743 932.067937 664.65847 1024 513.145414 1024c-151.288555 0-281.168179-91.658309-337.137682-222.473736-28.933154 25.231177-47.165852 62.379239-47.165853 103.724098 0 4.950479-3.974586 9.018989-8.890702 9.170184l-0.285208 0.004582H55.438031c-5.046694 0-9.174765-4.128072-9.174765-9.174766 0-79.464233 42.112286-149.121432 105.225736-187.861619a368.646872 368.646872 0 0 1-4.8703-57.811329L146.612975 657.467562v-87.113307H9.559624c-4.951624 0-9.018989-3.974586-9.171329-8.890702l-0.004581-0.285208v-64.226792zM229.082774 329.88034L229.082774 657.467562c0 156.883902 127.178738 284.06264 284.06264 284.062639 155.314685 0 281.516385-124.648519 284.024841-279.365297L797.208054 657.467562V329.88034H229.082774z m112.6274-87.051454h342.87277C678.687499 153.279284 604.185199 82.469799 513.145414 82.469799s-165.542085 70.809485-171.436385 160.357941z m84.605996 214.971275c0-9.338559 10.512609-14.684206 18.094103-9.195382l211.766407 153.244921c6.294049 4.562183 6.294049 13.827436 0 18.38962L444.409128 773.484242c-7.509333 5.417808-18.094103 0.143177-18.094103-9.194238z" fill="#000000" p-id="13455"></path></svg>
