<?xml version="1.0" standalone="no"?><!DOCTYPE svg PUBLIC "-//W3C//DTD SVG 1.1//EN" "http://www.w3.org/Graphics/SVG/1.1/DTD/svg11.dtd"><svg t="1760077177012" class="icon" viewBox="0 0 1024 1024" version="1.1" xmlns="http://www.w3.org/2000/svg" p-id="10479" xmlns:xlink="http://www.w3.org/1999/xlink" width="200" height="200"><path d="M766.966653 186.334198l-0.263956 0.475122a34.525524 34.525524 0 0 0-21.116529-6.704498 35.528559 35.528559 0 0 0-33.99761 36.953924 34.895063 34.895063 0 0 0 16.154144 27.609861 387.171544 387.171544 0 0 1-215.916501 708.82906 341.507052 341.507052 0 0 1-56.011591-3.220271 336.861416 336.861416 0 0 1-160.380031-63.085628 386.854796 386.854796 0 0 1 199.287235-707.403694l-43.288883 42.233057 0.844661 0.844661a34.78948 34.78948 0 0 0-15.837396 30.143844 35.422976 35.422976 0 0 0 36.953924 34.050401 34.78948 34.78948 0 0 0 26.817991-14.887152l0.316748 0.316748 132.664588-128.863613-131.978301-132.400632-0.42233 0.422331A34.78948 34.78948 0 0 0 473.288538 0.033628a35.475767 35.475767 0 0 0-33.997611 36.953924 35.000645 35.000645 0 0 0 13.408996 25.920539l46.667527 46.667527a457.120044 457.120044 0 0 0-245.901971 834.261237A400.316583 400.316583 0 0 0 448.107078 1020.489852a407.443411 407.443411 0 0 0 63.719123 3.378645A457.595166 457.595166 0 0 0 766.966653 186.334198" p-id="10480"></path><path d="M528.033137 389.52799A34.103193 34.103193 0 0 0 510.348045 395.968531v-0.316747L400.066976 467.342397a35.053437 35.053437 0 0 0-16.312518 30.618966 35.422976 35.422976 0 0 0 36.953924 33.99761 33.892028 33.892028 0 0 0 17.632301-6.229376v0.263957l55.853217-36.056472V748.9313a35.264602 35.264602 0 0 0 70.529205-1.372574v-1.161409V424.950966v-1.372574a35.528559 35.528559 0 0 0-36.953925-34.050402" p-id="10481"></path></svg>