<svg t="1761041287435" class="icon" viewBox="0 0 1024 1024" version="1.1" xmlns="http://www.w3.org/2000/svg" p-id="20087" width="256" height="256"><path d="M1009.140569 481.100584l-157.049056-126.283955c-25.901501-20.86824-64.470985-2.375247-64.470985 30.878209v95.518853H554.676681v-244.876634h83.529513c33.253455 0 51.746448-38.51293 30.878208-64.470985L542.857001 14.817016c-15.834979-19.73717-45.921438-19.73717-61.756417 0L354.816629 171.866072c-20.86824 25.901501-2.375247 64.470985 30.878209 64.470985h95.518853v244.876634h-244.876634V385.694838c0-33.253455-38.51293-51.746448-64.470985-30.878209L14.817016 481.100584c-19.73717 15.834979-19.73717 45.921438 0 61.756417l157.049056 126.283955c25.901501 20.86824 64.470985 2.375247 64.470985-30.878209V554.733235h244.876634v232.943847H385.694838c-33.253455 0-51.746448 38.51293-30.878209 64.470984l126.283955 157.049057c15.834979 19.73717 45.921438 19.73717 61.756417 0l126.283955-157.049057c20.86824-25.901501 2.375247-64.470985-30.878209-64.470984H554.733235V554.733235h232.943847v83.529512c0 33.253455 38.51293 51.746448 64.470984 30.878209l157.049057-126.283955c19.73717-15.834979 19.73717-45.921438 0-61.756417z" p-id="20088"></path></svg>
