<svg t="1764223174752" class="icon" viewBox="0 0 1024 1024" version="1.1" xmlns="http://www.w3.org/2000/svg" p-id="12754" width="200" height="200"><path d="M711.808 590.976l5.504 10.592-61.12 16.848 1.92 63.36-62.384-11.344-25.76 57.936-51.264-37.28-48.352 41.008-30.016-55.84-61.344 15.968-0.544-11.92 333.36-89.328z m-399.616-157.952l-5.504-10.592 61.12-16.848-1.92-63.36 62.384 11.344 25.76-57.936 51.264 37.28 48.352-41.008 30.016 55.84 61.344-15.968 0.544 11.92-333.36 89.328z" fill="#6425d0" p-id="12755"></path><path d="M861.952 550.752l-33.44 8.96c-18.448 121.936-106.944 227.424-233.696 261.392-126.736 33.952-256.112-13.152-333.056-109.536l8.448-2.272c75.28 92.16 200.16 136.864 322.544 104.08 122.384-32.8 208.176-133.968 227.296-251.408l-108.16 28.992 5.424 10.608-60.672 17.184 1.472 63.04-62.112-10.848-26.032 57.424-51.248-36.72-48.368 40.448-30.24-55.328-61.12 15.456-0.624-11.904-150.08 40.208c83.408 113.392 230.656 170.112 374.816 131.472 144.16-38.624 243.328-161.36 258.848-301.248z m32.992-8.848c-12.32 157.712-122.064 297.744-283.552 341.008-161.504 43.28-326.56-23.12-416.08-153.536l-113.824 30.496L15.232 512.592l113.824-30.496c12.32-157.712 122.064-297.744 283.552-341.008 161.504-43.28 326.56 23.12 416.08 153.536l113.824-30.496 66.256 247.28-113.824 30.496z m-732.896-68.64l150.064-40.224-5.424-10.608 60.672-17.184-1.472-63.04 62.112 10.848 26.032-57.424 51.248 36.72 48.368-40.448 30.24 55.328 61.12-15.456 0.624 11.904 150.08-40.208C712.288 190.08 565.04 133.36 420.88 172c-144.16 38.624-243.328 161.36-258.848 301.248z m221.504-59.36l190.64-51.088-25.232-46.128-42.928 35.888-45.488-32.592-23.088 50.96-55.12-9.616 1.216 52.576zM640.448 610.08l-190.64 51.088 25.232 46.128 42.928-35.888 45.488 32.592 23.088-50.96 55.12 9.616-1.216-52.576z m113.344-295.392c-75.28-92.16-200.16-136.864-322.544-104.08-122.384 32.8-208.176 133.968-227.296 251.408l-8.464 2.256c18.448-121.936 106.944-227.424 233.696-261.392 126.736-33.952 256.112 13.152 333.056 109.536l-8.448 2.272zM34.816 523.904L92.8 740.272l896.384-240.176L931.2 283.728 34.816 523.904z m15.68 9.056l51.36 191.632L973.504 491.04l-51.36-191.632L50.496 532.96z m-5.872-3.392l880.928-236.048 53.824 200.912L98.448 730.48 44.64 529.568z m401.392-260.784l-11.696 10.816-1.472-15.872-13.904-7.792 14.64-6.288 3.12-15.632 10.512 11.984 15.84-1.872-8.16 13.696 6.672 14.48-15.552-3.52z m-53.056 18.368l-7.792 7.2-0.976-10.576-9.28-5.2 9.76-4.192 2.08-10.416 7.008 7.984 10.56-1.248-5.44 9.12 4.448 9.664-10.368-2.336z m108.944-29.2l-7.808 7.2-0.96-10.56-9.28-5.2 9.76-4.192 2.08-10.432 7.008 8 10.56-1.248-5.44 9.12 4.448 9.664-10.368-2.352z m75.312 497.44l11.712-10.816 1.456 15.872 13.92 7.792-14.656 6.304-3.12 15.632-10.512-11.984-15.824 1.872 8.16-13.696-6.672-14.48 15.536 3.52z m53.056-18.352l7.808-7.2 0.96 10.56 9.28 5.2-9.76 4.208-2.08 10.4-7.008-7.968-10.56 1.248 5.44-9.136-4.448-9.648 10.368 2.336z m-108.944 29.184l7.808-7.2 0.976 10.576 9.28 5.2-9.76 4.192-2.08 10.416-7.008-7.984-10.56 1.248 5.44-9.12-4.448-9.664 10.352 2.336z" fill="#6425d0" p-id="12756"></path><path d="M351.296 615.776l55.008-14.752c16.384-4.384 17.616-9.68 13.248-34.016 4.688 1.392 11.84 2.128 16.224 1.776 4.56 29.424 1.088 39.296-25.504 46.416l-54.72 14.656c-26.72 7.168-36.4 4.464-42.032-16.56l-19.952-74.496 14.832-3.968 6.24 23.344 75.744-20.304-9.936-37.088-97.68 26.176-3.76-14.08 112.512-30.128 19.456 72.64-14.832 3.968-2-7.424-75.728 20.304 9.984 37.232c2.56 9.6 6.192 10.768 22.88 6.304z m199.2-120.8L516.8 504l3.888 14.528 33.696-9.024-3.888-14.528z m-22.592 50.448l33.696-9.024-3.936-14.688-33.696 9.024 3.936 14.688z m-48.688 13.04l33.856-9.072-3.936-14.672-33.856 9.072 3.936 14.672z m22.752-50.48l-33.84 9.072 3.888 14.512 33.84-9.056-3.888-14.528z m7.712-30.56l3.776 14.064 48.064-12.88 19.744 73.712-14.368 3.856-1.952-7.264-33.696 9.024 7.296 27.2-14.832 3.984-7.296-27.2-33.84 9.072 2.112 7.872-13.92 3.728-19.904-74.336 47.744-12.8-3.76-14.064 14.832-3.968z m-2.112-18.992l54.24-14.528 7.136 26.576-14.688 3.936-3.472-12.976-99.84 26.752 3.488 12.976-14.24 3.808-7.104-26.576 58.4-15.648a202.96 202.96 0 0 0-9.344-11.408l13.888-8.192c4.224 4.656 9.68 10.816 12.544 14.688l-1.008 0.592z m195.44-21.712l14.8 0.832c-7.136 27.76-25.008 56.24-49.504 76.704-2.416-2.832-7.648-6.88-10.88-9.008a138.304 138.304 0 0 0 32.608-37.232c-24.96 8.848-29.696 10.944-32.352 12.8a132.576 132.576 0 0 0-7.376-12.08c3.04-1.648 7.68-4.048 9.68-7.744 1.888-3.472 6.08-17.52 9.104-27.28l-27.984 7.504-3.52-13.136 38.336-10.272a95.728 95.728 0 0 0-11.088-14.752l12.32-7.776c5.616 5.44 11.6 12.96 14.224 18.384l32.144-8.608 3.52 13.12-42.816 11.488c-2.784 9.36-6.4 21.248-9.536 30.544l23.312-7.568c2.08-5.2 3.888-10.816 5.008-15.92z m-52.096 47.248l-5.808 12.32a292.64 292.64 0 0 0-14.448-16.832l20.32 75.888-13.76 3.68-17.76-66.288c-0.624 15.568-2.88 30.592-6.448 40.8a85.28 85.28 0 0 0-11.072-12.256c6.304-14.784 9.056-40.368 8.048-61.456l-19.008 5.088-3.568-13.28 19.632-5.28-7.792-29.04 13.76-3.68 7.792 29.04 16.384-4.384 3.552 13.28-16.384 4.4 1.536 5.728c5.552 4.64 21.28 18.8 25.024 22.272z m70-21.904l16.08 1.328a126.96 126.96 0 0 1-15.936 35.744c12.16 5.184 26.016 11.744 33.776 16.624l-8.56 12.56c-7.344-5.152-20.64-12.192-32.784-17.888-11.392 14.976-25.984 28.496-43.296 39.936a79.216 79.216 0 0 0-11.584-9.824c32.8-20.384 56.016-49.952 62.304-78.48z" fill="#6425d0" p-id="12757"></path></svg>