<svg t="1742890274031" class="icon" viewBox="0 0 1024 1024" version="1.1" xmlns="http://www.w3.org/2000/svg" p-id="4483" width="64" height="64"><path d="M265.482 0h493.036C935.506 0 1024 88.494 1024 265.482v493.036C1024 935.506 935.506 1024 758.518 1024H265.482C88.494 1024 0 935.506 0 758.518V265.482C0 88.494 88.494 0 265.482 0z" fill="#FFFFFF" p-id="4484"></path><path d="M666.025 699.023c38.554-0.046 69.796-31.298 69.821-69.857-0.066-38.528-31.293-69.734-69.821-69.775-29.338 0-54.43 18.242-64.727 43.904H456.156v25.871c0 53.658-43.612 97.275-97.234 97.275-53.611 0-97.264-43.617-97.264-97.275 0-53.622 43.642-97.203 97.264-97.203v-51.748c-82.15 0-149.002 66.842-149.002 148.961 0 82.161 66.852 149.003 149.002 149.003 73.319 0 134.451-53.259 146.719-123.131h95.657c10.296 25.712 35.394 43.98 64.727 43.98z" fill="#4A7DFF" p-id="4485"></path><path d="M417.229 478.157l-47.964 83.118c-27.244-3.272-56.182 9.487-70.257 33.777a69.412 69.412 0 0 0-6.979 52.981 69.376 69.376 0 0 0 32.538 42.373 69.821 69.821 0 0 0 95.386-25.533c14.684-25.395 11.422-56.253-5.694-78.044l72.622-125.63-22.466-12.963a96.732 96.732 0 0 1-45.343-59.065 96.696 96.696 0 0 1 9.743-73.81c26.798-46.464 86.436-62.336 132.875-35.61 46.402 26.824 62.377 86.421 35.563 132.865l44.785 25.866c41.103-71.127 16.65-162.437-54.492-203.52-71.2-41.052-162.473-16.62-203.526 54.528a147.973 147.973 0 0 0-14.888 113.08 147.855 147.855 0 0 0 48.097 75.587z" fill="#8EC8EC" p-id="4486"></path><path d="M703.012 485.376a148.265 148.265 0 0 0-89.57 3.901l-47.769-82.79c17.07-21.77 20.342-52.603 5.683-78.05-18.514-32.086-63.083-44.185-95.375-25.558a69.294 69.294 0 0 0-32.533 42.409 69.294 69.294 0 0 0 7 52.946 69.955 69.955 0 0 0 60.482 34.949c3.272 0 6.446-0.81 9.677-1.28l72.78 126.136 22.431-12.938a96.404 96.404 0 0 1 73.83-9.728 96.538 96.538 0 0 1 59.034 45.302 96.732 96.732 0 0 1 9.738 73.82 96.778 96.778 0 0 1-45.327 59.038c-46.454 26.752-106.025 10.819-132.874-35.635l-44.785 25.907c27.571 47.76 77.788 74.435 129.326 74.435 25.227 0 50.821-6.4 74.19-19.907a147.881 147.881 0 0 0 69.411-90.465 147.999 147.999 0 0 0-14.869-113.065 147.927 147.927 0 0 0-90.47-69.412l-0.01-0.01z" fill="#4A7DFF" p-id="4487"></path></svg>