<svg height="695" node-id="1" sillyvg="true" template-height="695" template-width="697" version="1.1" viewBox="0 0 697 695" width="697" xmlns="http://www.w3.org/2000/svg" xmlns:xlink="http://www.w3.org/1999/xlink"><defs node-id="103"><linearGradient gradientUnits="objectBoundingBox" id="linearGradient-1" node-id="5" spreadMethod="pad" x1="0.5" x2="0.5" y1="0" y2="1"><stop offset="0" stop-color="#f9ab21"/><stop offset="1" stop-color="#fee127"/></linearGradient><linearGradient gradientUnits="objectBoundingBox" id="linearGradient-2" node-id="8" spreadMethod="pad" x1="0.5" x2="0.5" y1="0" y2="1"><stop offset="0" stop-color="#f9ab21"/><stop offset="1" stop-color="#fff29d" stop-opacity="0"/></linearGradient><linearGradient gradientUnits="objectBoundingBox" id="linearGradient-3" node-id="11" spreadMethod="pad" x1="0.5" x2="0.5" y1="0" y2="1"><stop offset="0" stop-color="#f9ab21"/><stop offset="1" stop-color="#fff29d" stop-opacity="0"/></linearGradient><linearGradient gradientUnits="objectBoundingBox" id="linearGradient-4" node-id="14" spreadMethod="pad" x1="0.5" x2="0.13610454" y1="-0.30087012" y2="1"><stop offset="0" stop-color="#fff29d"/><stop offset="1" stop-color="#f9ab21"/></linearGradient><linearGradient gradientUnits="objectBoundingBox" id="linearGradient-5" node-id="17" spreadMethod="pad" x1="0.5" x2="0.5" y1="0" y2="1"><stop offset="0" stop-color="#fff29d"/><stop offset="1" stop-color="#f9ab21"/></linearGradient><linearGradient gradientUnits="objectBoundingBox" id="linearGradient-6" node-id="20" spreadMethod="pad" x1="0.6837197" x2="0.3764804" y1="0.88484544" y2="0.27096847"><stop offset="0" stop-color="#f9ab21"/><stop offset="1" stop-color="#fff29d"/></linearGradient><linearGradient gradientUnits="objectBoundingBox" id="linearGradient-7" node-id="23" spreadMethod="pad" x1="0.43684453" x2="0.5551885" y1="-0.17046374" y2="1.2525879"><stop offset="0" stop-color="#f9ab21"/><stop offset="1" stop-color="#fff29d"/></linearGradient><linearGradient gradientUnits="objectBoundingBox" id="linearGradient-8" node-id="26" spreadMethod="pad" x1="0.5" x2="0.5" y1="0" y2="1"><stop offset="0" stop-color="#fff29d"/><stop offset="1" stop-color="#f9ab21"/></linearGradient><linearGradient gradientUnits="objectBoundingBox" id="linearGradient1" node-id="153" spreadMethod="pad" x1="0.5" x2="0.5" y1="0" y2="1"><stop offset="0" stop-color="#fff29d"/><stop offset="1" stop-color="#f9ab21"/></linearGradient><linearGradient gradientUnits="objectBoundingBox" id="linearGradient-9" node-id="29" spreadMethod="pad" x1="0.5" x2="0.5" y1="0" y2="1"><stop offset="0" stop-color="#fff29d"/><stop offset="1" stop-color="#f9ab21"/></linearGradient><linearGradient gradientUnits="objectBoundingBox" id="linearGradient-10" node-id="32" spreadMethod="pad" x1="0.5" x2="0.5" y1="0" y2="1"><stop offset="0" stop-color="#fff29d"/><stop offset="1" stop-color="#f9ab21"/></linearGradient><linearGradient gradientUnits="objectBoundingBox" id="linearGradient-11" node-id="35" spreadMethod="pad" x1="0.5" x2="0.5" y1="-0.19003877" y2="1"><stop offset="0" stop-color="#ffcda5"/><stop offset="1" stop-color="#ffe8d1"/></linearGradient><linearGradient gradientUnits="objectBoundingBox" id="linearGradient2" node-id="178" spreadMethod="pad" x1="0.14347483" x2="1" y1="0.11709897" y2="0.73632693"><stop offset="0" stop-color="#bfd4fa"/><stop offset="1" stop-color="#5792f0"/></linearGradient><linearGradient gradientUnits="objectBoundingBox" id="linearGradient-12" node-id="38" spreadMethod="pad" x1="0.8565252" x2="0" y1="0.11709897" y2="0.73632693"><stop offset="0" stop-color="#bfd4fa"/><stop offset="1" stop-color="#5792f0"/></linearGradient><linearGradient gradientUnits="objectBoundingBox" id="linearGradient-13" node-id="41" spreadMethod="pad" x1="0.4350463" x2="0.59109277" y1="-0.31010887" y2="1"><stop offset="0" stop-color="#bfd4fa"/><stop offset="1" stop-color="#5792f0"/></linearGradient><linearGradient gradientUnits="objectBoundingBox" id="linearGradient-14" node-id="44" spreadMethod="pad" x1="0.5" x2="0.5" y1="0" y2="1"><stop offset="0" stop-color="#fee127"/><stop offset="1" stop-color="#f9ab21"/></linearGradient><linearGradient gradientUnits="objectBoundingBox" id="linearGradient-15" node-id="47" spreadMethod="pad" x1="0.5" x2="0.5" y1="0" y2="1"><stop offset="0" stop-color="#fff2df"/><stop offset="1" stop-color="#fee0bc"/></linearGradient><linearGradient gradientUnits="objectBoundingBox" id="linearGradient-16" node-id="50" spreadMethod="pad" x1="0.21875" x2="0.636424" y1="0.23445843" y2="1"><stop offset="0" stop-color="#fff2df"/><stop offset="1" stop-color="#fee0bc"/></linearGradient><linearGradient gradientUnits="objectBoundingBox" id="linearGradient-17" node-id="53" spreadMethod="pad" x1="0.49999997" x2="0.49999997" y1="0" y2="0.99999994"><stop offset="0" stop-color="#fff2df"/><stop offset="1" stop-color="#fee0bc"/></linearGradient><linearGradient gradientUnits="objectBoundingBox" id="linearGradient-18" node-id="56" spreadMethod="pad" x1="0.5" x2="0.5" y1="0" y2="1"><stop offset="0" stop-color="#fff29d"/><stop offset="1" stop-color="#f9ab21"/></linearGradient><linearGradient gradientUnits="objectBoundingBox" id="linearGradient3" node-id="227" spreadMethod="pad" x1="0.5" x2="0.5" y1="0" y2="1"><stop offset="0" stop-color="#fff29d"/><stop offset="1" stop-color="#f9ab21"/></linearGradient><linearGradient gradientUnits="objectBoundingBox" id="linearGradient-19" node-id="59" spreadMethod="pad" x1="0.5" x2="0.5" y1="0" y2="1"><stop offset="0" stop-color="#fff29d"/><stop offset="1" stop-color="#f9ab21"/></linearGradient><linearGradient gradientUnits="objectBoundingBox" id="linearGradient-20" node-id="62" spreadMethod="pad" x1="0.5" x2="0.5" y1="0" y2="1"><stop offset="0" stop-color="#fff29d"/><stop offset="1" stop-color="#f9ab21"/></linearGradient></defs><path d="M 0.00 0.00 L 1024.00 0.00 L 1024.00 1024.00 L 0.00 1024.00 Z" fill="none" id="矩形" node-id="66" stroke="none" target-height="1024" target-width="1024" target-x="0" target-y="0"/><g node-id="245"><g node-id="246"><path d="M 102.23 487.69 C 58.97 403.20 67.78 330.97 128.67 270.98 C 219.99 181.00 316.51 212.60 348.96 237.54 C 381.41 262.48 450.25 334.42 549.83 211.73 C 649.41 89.03 749.18 191.97 738.81 270.98 C 728.44 350.00 712.09 438.97 898.70 439.08 C 1023.10 439.16 1023.10 501.49 898.70 626.06 C 816.61 684.75 808.94 733.24 875.67 771.51 C 942.41 809.79 934.52 842.31 852.03 869.07 C 657.79 910.51 472.29 921.89 295.55 903.23 C 118.80 884.56 83.97 847.92 191.04 793.30 C 222.84 751.83 202.05 732.95 128.67 736.66 C 18.58 742.23 -7.14 648.43 102.23 626.06 C 175.15 611.15 175.15 565.03 102.23 487.69 Z" fill="url(#linearGradient-1)" fill-opacity="0.1" fill-rule="evenodd" group-id="1,2" id="路径-56" node-id="68" stroke="none" target-height="832.8598" target-width="1030.2441" target-x="-7.143173" target-y="89.033"/></g><path d="M 236.92 309.96 C 236.92 324.38 222.25 335.92 203.73 335.92 L 101.05 335.92 C 82.52 334.77 67.08 323.81 67.08 308.81 C 67.08 299.00 74.03 290.35 84.06 285.73 C 83.29 284.00 82.52 282.27 82.52 280.54 C 82.52 270.73 92.55 262.08 105.68 262.08 C 111.08 262.08 115.71 263.81 119.57 266.12 C 128.84 252.85 145.82 243.62 165.90 243.62 C 193.69 243.62 216.08 261.50 216.08 283.42 L 216.08 285.73 C 228.43 289.77 236.92 299.00 236.92 309.96 Z" fill="url(#linearGradient-2)" fill-rule="evenodd" group-id="1" id="路径" node-id="69" stroke="none" target-height="92.30771" target-width="169.84616" target-x="67.07692" target-y="243.61539"/><path d="M 780.39 279.27 C 780.39 290.23 770.13 299.00 757.16 299.00 L 685.31 299.00 C 672.34 298.12 661.54 289.79 661.54 278.39 C 661.54 270.94 666.40 264.36 673.42 260.85 C 672.88 259.54 672.34 258.22 672.34 256.91 C 672.34 249.45 679.37 242.88 688.55 242.88 C 692.33 242.88 695.57 244.19 698.28 245.95 C 704.76 235.86 716.64 228.85 730.69 228.85 C 750.14 228.85 765.81 242.44 765.81 259.10 L 765.81 260.85 C 774.45 263.92 780.39 270.94 780.39 279.27 Z" fill="url(#linearGradient-3)" fill-rule="evenodd" group-id="1" id="路径" node-id="70" stroke="none" target-height="70.15384" target-width="118.85443" target-x="661.53845" target-y="228.84616"/><path d="M 574.77 877.03 C 574.77 886.20 546.25 893.64 511.08 893.64 C 475.90 893.64 447.38 886.20 447.38 877.03 C 447.38 867.85 475.90 860.41 511.08 860.41 C 546.25 860.41 574.77 867.85 574.77 877.03 Z" fill="#fee3b1" fill-rule="evenodd" group-id="1" id="椭圆形" node-id="71" stroke="none" target-height="33.23065" target-width="127.38458" target-x="447.38464" target-y="860.41315"/><g node-id="247"><path d="M 642.20 804.85 L 345.93 804.85 C 329.57 804.85 316.31 792.41 316.31 777.06 L 316.31 582.59 C 316.31 567.24 329.57 554.80 345.93 554.80 L 375.56 554.80 L 375.56 499.24 C 375.56 437.86 428.62 388.11 494.07 388.11 C 559.51 388.11 612.57 437.86 612.57 499.24 L 612.57 554.80 L 642.20 554.80 C 658.56 554.80 671.83 567.24 671.83 582.59 L 671.83 777.06 C 671.83 792.41 658.56 804.85 642.20 804.85 Z M 479.25 691.17 L 479.25 735.39 C 479.25 743.05 485.88 749.28 494.07 749.28 C 502.26 749.28 508.88 743.05 508.88 735.39 L 508.88 691.17 C 526.10 685.42 538.51 670.15 538.51 652.04 C 538.51 629.02 518.62 610.37 494.07 610.37 C 469.52 610.37 449.63 629.02 449.63 652.04 C 449.63 670.15 462.04 685.42 479.25 691.17 L 479.25 691.17 Z M 553.32 499.24 C 553.32 468.55 526.79 443.68 494.07 443.68 C 461.34 443.68 434.81 468.56 434.81 499.24 L 434.81 554.80 L 553.32 554.80 L 553.32 499.24 L 553.32 499.24 Z" fill="url(#linearGradient-4)" fill-rule="evenodd" group-id="1,3" id="形状" node-id="73" stroke="none" target-height="416.7357" target-width="355.51996" target-x="316.30768" target-y="388.11044"/><path d="M 659.60 802.50 L 363.34 802.50 C 346.98 802.50 333.71 790.07 333.71 774.72 L 333.71 580.25 C 333.71 564.90 346.98 552.46 363.34 552.46 L 392.96 552.46 L 392.96 496.90 C 392.96 435.51 446.03 385.77 511.47 385.77 C 576.92 385.77 629.98 435.51 629.98 496.90 L 629.98 552.46 L 659.60 552.46 C 675.97 552.46 689.23 564.90 689.23 580.25 L 689.23 774.72 C 689.23 790.07 675.96 802.50 659.60 802.50 Z M 496.66 688.83 L 496.66 733.05 C 496.66 740.71 503.28 746.94 511.47 746.94 C 519.66 746.94 526.28 740.71 526.28 733.05 L 526.28 688.83 C 543.50 683.07 555.91 667.81 555.91 649.70 C 555.91 626.68 536.02 608.03 511.47 608.03 C 486.92 608.03 467.03 626.68 467.03 649.70 C 467.03 667.81 479.44 683.07 496.66 688.83 L 496.66 688.83 Z M 570.72 496.90 C 570.72 466.21 544.19 441.33 511.47 441.33 C 478.75 441.33 452.22 466.21 452.22 496.90 L 452.22 552.46 L 570.72 552.46 L 570.72 496.90 L 570.72 496.90 Z" fill="url(#linearGradient-5)" fill-rule="evenodd" group-id="1,3" id="形状备份" node-id="74" stroke="none" target-height="416.73572" target-width="355.51996" target-x="333.71075" target-y="385.76923"/></g><g node-id="248"><path d="M 263.67 431.92 C 290.09 431.92 300.84 452.07 300.84 463.88 C 314.72 465.80 342.72 479.77 342.72 505.57 C 342.72 531.38 320.55 543.75 313.25 549.23 C 311.43 550.59 308.97 551.87 306.49 553.22 L 305.90 553.55 C 298.68 557.53 291.78 562.27 300.84 571.88 C 309.12 580.66 309.67 585.33 302.51 585.89 L 290.09 585.89 L 290.09 787.32 L 279.30 797.46 L 258.68 797.46 L 239.36 769.79 L 239.36 758.11 L 254.53 749.27 L 254.53 730.46 L 243.31 719.77 L 243.31 695.68 L 251.96 680.01 L 251.96 641.48 L 239.36 630.65 L 239.36 585.89 L 228.65 585.89 C 218.88 585.90 218.88 581.23 228.65 571.88 C 236.41 564.02 233.53 556.58 217.86 549.23 C 204.92 543.70 184.66 528.21 187.31 505.57 C 189.49 484.99 203.27 471.10 228.65 463.88 C 234.39 442.58 246.06 431.92 263.67 431.92 Z M 265.71 453.52 C 253.62 453.52 243.82 462.84 243.82 474.34 C 243.82 485.84 253.62 495.16 265.71 495.16 C 277.80 495.16 287.60 485.84 287.60 474.34 C 287.60 462.84 277.80 453.52 265.71 453.52 Z" fill="none" group-id="1,4" id="形状结合" node-id="76" stroke="url(#linearGradient-6)" stroke-linecap="butt" stroke-width="2" target-height="365.53848" target-width="158.06143" target-x="184.66257" target-y="431.92307"/><path d="M 276.03 431.92 C 302.44 431.92 313.20 452.07 313.20 463.88 C 327.07 465.80 355.08 479.77 355.08 505.57 C 355.08 531.38 332.90 543.75 325.61 549.23 C 323.78 550.59 321.32 551.87 318.84 553.22 L 318.25 553.55 C 311.03 557.53 304.14 562.27 313.20 571.88 C 321.47 580.66 322.02 585.33 314.86 585.89 L 302.44 585.89 L 302.44 787.32 L 291.65 797.46 L 271.03 797.46 L 251.71 769.79 L 251.71 758.11 L 266.88 749.27 L 266.88 730.46 L 255.67 719.77 L 255.67 695.68 L 264.31 680.01 L 264.31 641.48 L 251.71 630.65 L 251.71 585.89 L 241.01 585.89 C 231.23 585.90 231.23 581.23 241.01 571.88 C 248.76 564.02 245.88 556.58 230.21 549.23 C 217.28 543.70 197.02 528.21 199.67 505.57 C 201.84 484.99 215.62 471.10 241.01 463.88 C 246.74 442.58 258.42 431.92 276.03 431.92 Z M 278.06 453.52 C 265.98 453.52 256.18 462.84 256.18 474.34 C 256.18 485.84 265.98 495.16 278.06 495.16 C 290.15 495.16 299.95 485.84 299.95 474.34 C 299.95 462.84 290.15 453.52 278.06 453.52 Z" fill="url(#linearGradient-7)" fill-rule="evenodd" group-id="1,4" id="形状结合备份" node-id="77" stroke="none" target-height="365.53848" target-width="158.0614" target-x="197.0155" target-y="431.92307"/></g><g node-id="249"><path d="M 199.51 887.92 C 189.41 829.21 166.57 792.68 131.00 778.34 C 77.63 756.83 77.91 707.35 131.00 708.88 C 204.67 712.43 227.51 772.11 199.51 887.92 Z" fill="url(#linearGradient-8)" fill-rule="evenodd" group-id="1,5" id="路径-82" node-id="79" stroke="none" target-height="180.57764" target-width="149.88235" target-x="77.630005" target-y="707.3454"/><path d="M 200.00 887.92 C 204.56 861.87 216.97 840.30 237.21 823.21 C 267.58 797.59 264.57 823.30 259.64 834.89 C 253.89 856.26 234.01 873.94 200.00 887.92 Z" fill="url(#linearGradient1)" fill-rule="evenodd" group-id="1,5" id="路径-83" node-id="80" stroke="none" target-height="90.33679" target-width="67.58339" target-x="200.00002" target-y="797.58624"/><g node-id="252"><path d="M 200.00 887.92 C 195.44 861.87 183.03 840.30 162.79 823.21 C 132.42 797.59 135.43 823.30 140.36 834.89 C 146.11 856.26 165.99 873.94 200.00 887.92 Z" fill="url(#linearGradient-9)" fill-rule="evenodd" group-id="1,5,8" id="路径-83备份" node-id="81" stroke="none" target-height="90.33679" target-width="67.583405" target-x="132.4166" target-y="797.58624"/></g><path d="M 91.08 911.74 C 118.38 906.69 133.44 902.41 136.25 898.89 C 140.46 893.60 177.61 870.92 200.78 890.03 C 205.82 883.60 222.00 878.59 231.25 890.03 C 235.49 871.98 261.91 860.42 273.39 862.29 C 286.33 861.29 324.53 861.71 327.38 911.74 C 316.96 911.98 238.19 911.98 91.08 911.74 Z" fill="url(#linearGradient-10)" fill-rule="evenodd" group-id="1,5" id="路径-47" node-id="82" stroke="none" target-height="51.561707" target-width="236.30771" target-x="91.07693" target-y="860.4215"/></g><g node-id="250"><path d="M 842.82 908.10 C 842.82 921.43 809.07 932.23 767.43 932.23 C 725.79 932.23 692.03 921.43 692.03 908.10 C 692.03 894.78 725.79 883.98 767.43 883.98 C 809.07 883.98 842.82 894.78 842.82 908.10 Z" fill="#fee3b1" fill-rule="evenodd" group-id="1,6" id="椭圆形" node-id="84" stroke="none" target-height="48.253662" target-width="150.79279" target-x="692.0318" target-y="883.9772"/><path d="M 747.26 624.61 L 771.39 624.61 L 771.39 648.74 L 747.26 648.74 Z" fill="url(#linearGradient-11)" fill-rule="evenodd" group-id="1,6" id="矩形" node-id="85" stroke="none" target-height="24.126831" target-width="24.126892" target-x="747.2606" target-y="624.61365"/><path d="M 744.25 890.67 L 743.00 898.84 C 737.91 899.00 732.37 900.49 726.39 903.33 C 722.54 905.80 722.36 906.92 722.24 909.05 C 722.16 910.46 733.04 910.46 754.88 909.05 L 754.88 887.67 L 744.25 890.67 Z" fill="url(#linearGradient2)" fill-rule="nonzero" group-id="1,6" id="路径-52" node-id="86" stroke="none" target-height="22.793762" target-width="32.72113" target-x="722.1573" target-y="887.6702"/><g node-id="253"><path d="M 790.17 890.67 L 791.42 898.84 C 796.51 899.00 802.05 900.49 808.03 903.33 C 811.88 905.80 812.06 906.92 812.18 909.05 C 812.26 910.46 801.38 910.46 779.54 909.05 L 779.54 887.67 L 790.17 890.67 Z" fill="url(#linearGradient-12)" fill-rule="nonzero" group-id="1,6,9" id="路径-52备份" node-id="87" stroke="none" target-height="22.793762" target-width="32.72107" target-x="779.5408" target-y="887.6702"/></g><path d="M 732.61 741.35 L 741.32 893.53 L 758.38 893.29 L 765.75 752.83 L 777.23 893.23 L 793.28 892.97 L 797.57 741.68 Z" fill="url(#linearGradient-13)" fill-rule="nonzero" group-id="1,6" id="路径-49" node-id="88" stroke="none" target-height="152.1817" target-width="64.95599" target-x="732.61224" target-y="741.3525"/><path d="M 828.69 677.96 C 830.93 676.17 833.27 675.48 835.68 675.89 C 837.31 675.92 838.25 675.52 838.49 674.67 C 841.30 674.24 842.43 674.79 841.87 676.32 C 841.31 677.84 840.60 678.39 839.75 677.96 L 843.62 679.73 L 847.31 677.13 C 851.87 677.19 853.60 678.72 852.49 681.73 C 850.58 684.87 845.37 688.81 838.49 685.53 C 836.98 684.38 835.61 683.86 834.37 683.97 L 828.69 677.96 Z" fill="#fee0bc" fill-rule="evenodd" group-id="1,6" id="路径-50" node-id="89" stroke="none" target-height="14.567993" target-width="24.90686" target-x="828.6887" target-y="674.243"/><g node-id="254"><path d="M 696.21 688.06 C 694.67 685.64 692.69 684.23 690.27 683.83 C 688.72 683.33 687.97 682.65 688.01 681.77 C 685.49 680.44 684.25 680.60 684.28 682.22 C 684.32 683.84 684.81 684.59 685.75 684.46 L 681.51 684.88 L 678.87 681.22 C 674.55 679.79 672.41 680.67 672.47 683.88 C 673.26 687.47 676.90 692.89 684.48 692.03 C 686.28 691.44 687.74 691.39 688.88 691.90 L 696.21 688.06 Z" fill="#fee0bc" fill-rule="evenodd" group-id="1,6,10" id="路径-50备份" node-id="90" stroke="none" target-height="13.107361" target-width="23.797058" target-x="672.41284" target-y="679.7874"/></g><path d="M 746.39 635.71 L 761.40 645.60 L 772.27 635.13 L 804.99 647.35 L 812.84 688.96 L 828.50 675.88 L 838.95 685.46 L 814.71 721.86 C 807.75 729.28 802.57 729.28 799.17 721.86 C 798.41 717.54 796.22 702.80 792.62 677.65 L 799.58 743.07 L 730.72 743.78 L 735.52 677.67 C 734.58 707.63 730.14 722.36 722.19 721.86 C 716.50 720.35 704.68 711.69 686.74 695.87 L 691.29 683.66 L 712.82 694.98 L 717.30 654.35 L 746.39 635.71 Z" fill="url(#linearGradient-14)" fill-rule="evenodd" group-id="1,6" id="路径-48" node-id="91" stroke="none" target-height="108.657776" target-width="152.21008" target-x="686.74255" target-y="635.12634"/><g node-id="255"><path d="M 787.53 604.16 C 787.53 618.67 774.95 630.44 759.43 630.44 C 743.91 630.44 731.33 618.67 731.33 604.16 C 731.33 589.64 743.91 577.87 759.43 577.87 C 774.95 577.87 787.53 589.64 787.53 604.16 Z" fill="url(#linearGradient-15)" fill-rule="evenodd" group-id="1,6,11" id="椭圆形" node-id="93" stroke="none" target-height="52.57184" target-width="56.19745" target-x="731.3319" target-y="577.8708"/><path d="M 792.97 605.43 C 792.97 609.03 790.78 611.95 788.07 611.95 C 785.37 611.95 783.18 609.03 783.18 605.43 C 783.18 601.82 785.37 598.90 788.07 598.90 C 790.78 598.90 792.97 601.82 792.97 605.43 Z" fill="url(#linearGradient-16)" fill-rule="evenodd" group-id="1,6,11" id="椭圆形" node-id="94" stroke="none" target-height="13.052307" target-width="9.789246" target-x="783.1786" target-y="598.89954"/><g node-id="256"><path d="M 734.91 608.37 C 735.41 611.94 733.65 615.14 730.97 615.51 C 728.29 615.89 725.72 613.30 725.22 609.73 C 724.71 606.16 726.48 602.96 729.15 602.59 C 731.83 602.21 734.41 604.80 734.91 608.37 Z" fill="url(#linearGradient-17)" fill-rule="evenodd" group-id="1,6,11,12" id="椭圆形备份" node-id="95" stroke="none" target-height="13.677734" target-width="10.697205" target-x="724.71436" target-y="602.21246"/></g><path d="M 733.84 609.87 C 729.95 607.90 727.14 603.81 725.42 597.59 C 722.78 582.70 730.09 568.68 734.98 565.86 C 739.87 563.05 742.67 561.49 745.25 562.96 C 747.35 559.81 757.94 554.04 774.23 559.53 C 790.52 565.03 795.25 581.36 794.36 589.64 C 793.76 595.16 791.43 600.96 787.38 607.05 L 787.38 598.79 C 786.45 603.08 785.24 605.83 783.77 607.05 C 784.42 603.83 784.63 599.88 783.91 598.07 C 783.18 596.27 783.14 600.18 782.11 603.06 C 777.97 597.44 772.56 593.45 765.87 591.09 L 765.14 592.76 C 758.92 586.57 754.96 582.88 753.25 581.67 C 750.67 579.86 748.97 580.05 748.33 582.42 C 747.48 581.87 745.32 580.12 744.21 583.18 C 742.49 587.04 739.89 592.16 739.02 602.78 C 737.26 599.74 735.99 603.10 736.51 607.63 C 735.82 607.53 735.13 607.31 734.43 606.99 L 733.84 609.87 Z" fill="#483029" fill-rule="evenodd" group-id="1,6,11" id="路径-67" node-id="96" stroke="none" target-height="55.83203" target-width="72.469604" target-x="722.7849" target-y="554.03687"/></g></g><g node-id="251"><path d="M 282.61 303.65 L 282.61 303.55 C 277.28 288.51 259.91 281.44 245.17 283.62 C 256.10 276.83 274.14 275.02 282.61 285.44 L 282.61 285.53 C 291.07 275.20 309.20 276.92 320.04 283.71 C 305.32 281.63 287.95 288.70 282.61 303.64 L 282.61 303.65 Z" fill="url(#linearGradient-18)" fill-rule="evenodd" group-id="1,7" id="路径" node-id="98" stroke="none" target-height="28.631622" target-width="74.8687" target-x="245.17415" target-y="275.0179"/><path d="M 366.03 291.11 L 366.03 291.04 C 362.33 280.62 350.30 275.73 340.09 277.23 C 347.66 272.52 360.16 271.27 366.03 278.49 L 366.03 278.55 C 371.90 271.39 384.47 272.59 391.98 277.29 C 381.77 275.85 369.74 280.75 366.03 291.11 L 366.03 291.11 Z" fill="url(#linearGradient3)" fill-rule="evenodd" group-id="1,7" id="路径" node-id="99" stroke="none" target-height="19.842773" target-width="51.894318" target-x="340.0873" target-y="271.26587"/><path d="M 331.24 256.63 L 331.24 256.57 C 327.54 246.14 315.51 241.25 305.29 242.75 C 312.87 238.04 325.37 236.79 331.24 244.01 L 331.24 244.07 C 337.11 236.92 349.67 238.11 357.19 242.82 C 346.97 241.37 334.95 246.27 331.24 256.63 L 331.24 256.63 Z" fill="url(#linearGradient-19)" fill-rule="evenodd" group-id="1,7" id="路径" node-id="100" stroke="none" target-height="19.842758" target-width="51.89435" target-x="305.29495" target-y="236.78786"/><path d="M 436.72 297.07 L 436.72 297.03 C 434.16 289.80 425.82 286.40 418.74 287.45 C 423.99 284.19 432.65 283.31 436.72 288.32 L 436.72 288.36 C 440.80 283.40 449.50 284.23 454.71 287.49 C 447.63 286.49 439.29 289.89 436.72 297.07 Z" fill="url(#linearGradient-20)" fill-rule="evenodd" group-id="1,7" id="路径" node-id="101" stroke="none" target-height="13.754578" target-width="35.97455" target-x="418.73578" target-y="283.3142"/></g></g></svg>